<?xml version="1.0" encoding="UTF-8" standalone="no"?> <!-- Created with Vectornator for iOS (http://vectornator.io/) --><!DOCTYPE svg PUBLIC "-//W3C//DTD SVG 1.1//EN" "http://www.w3.org/Graphics/SVG/1.1/DTD/svg11.dtd">
<svg version="1.1" width="100%" xmlns:xlink="http://www.w3.org/1999/xlink" xml:space="preserve" height="100%" xmlns:vectornator="http://vectornator.io" xmlns="http://www.w3.org/2000/svg" style="fill-rule:nonzero;clip-rule:evenodd;stroke-linecap:round;stroke-linejoin:round;" viewBox="0 0 419.58 297.675">
<metadata>
<vectornator:setting key="VNSnapToGuides" value="true"/>
<vectornator:setting key="WDRulersVisible" value="true"/>
<vectornator:setting value="false" key="WDCMYKEnabledKey"/>
<vectornator:setting value="false" key="WDSnapToPoints"/>
<vectornator:setting value="false" key="WDIsolateActiveLayer"/>
<vectornator:setting value="false" key="WDDisplayWhiteBackground"/>
<vectornator:setting value="true" key="UndoHistoryDisabled"/>
<vectornator:setting value="true" key="VNDimensionsVisible"/>
<vectornator:setting value="false" key="WDDynamicGuides"/>
<vectornator:setting key="WDUnits" value="Millimeters"/>
<vectornator:setting key="IsTimeLapseWatermarkDisabled" value="false"/>
<vectornator:setting key="WDOutlineMode" value="false"/>
<vectornator:setting key="WDSnapToGrid" value="false"/>
<vectornator:setting key="WDSnapToEdges" value="false"/>
<vectornator:setting key="WDGuidesVisible" value="true"/>
</metadata>
<defs/>
<g vectornator:layerName="Layer 1" id="Layer 1">
<g opacity="1">
<path d="M276.098+208.867C276.098+209.267+275.998+218.567+275.798+236.767C275.598+246.367+275.448+253.267+275.348+257.467C275.248+261.667+275.198+263.667+275.198+263.467C222.398+261.067+176.198+260.367+136.598+261.367L111.398+261.967C107.798+261.967+105.998+261.167+105.998+259.567C105.998+258.367+106.448+257.667+107.348+257.467C108.248+257.267+111.298+256.967+116.498+256.567C125.898+255.967+130.998+253.267+131.798+248.467C132.198+245.867+132.398+242.967+132.398+239.767L132.398+87.6668C132.398+75.6668+132.298+69.0668+132.098+67.8668C131.898+64.6668+130.898+62.4668+129.098+61.2668C127.298+60.0668+123.598+59.4668+117.998+59.4668C111.798+59.4668+108.698+58.5668+108.698+56.7668C108.698+54.7668+111.448+53.7668+116.948+53.7668C122.448+53.7668+130.098+53.6668+139.898+53.4668C176.698+52.6668+206.798+52.4668+230.198+52.8668L250.598+53.1668C254.998+53.1668+260.398+52.7668+266.798+51.9668L269.498+84.6668C270.498+95.0669+270.998+101.467+270.998+103.867C270.998+105.867+269.998+106.867+267.998+106.867C265.998+106.867+264.698+104.267+264.098+99.0668C262.298+85.2668+256.748+75.2168+247.448+68.9168C238.148+62.6168+224.398+59.4668+206.198+59.4668C200.598+59.4668+190.998+59.7668+177.398+60.3668L177.398+148.867C199.398+149.067+213.248+147.517+218.948+144.217C224.648+140.917+228.498+132.367+230.498+118.567C231.498+111.167+232.998+107.467+234.998+107.467C236.798+107.467+237.698+109.267+237.698+112.867C237.698+116.467+237.398+123.867+236.798+135.067C236.598+138.867+236.498+143.967+236.498+150.367C236.498+167.567+236.698+180.567+237.098+189.367C237.298+190.567+237.398+192.067+237.398+193.867C237.398+196.267+236.498+197.467+234.698+197.467C233.298+197.467+232.398+197.017+231.998+196.117C231.598+195.217+230.998+191.967+230.198+186.367C228.198+172.167+225.448+163.317+221.948+159.817C218.448+156.317+210.398+154.567+197.798+154.567L177.398+154.567L177.398+255.667L196.598+255.367C218.598+254.967+231.998+254.467+236.798+253.867C242.798+253.067+248.598+250.867+254.198+247.267C259.198+243.267+262.648+238.967+264.548+234.367C266.448+229.767+268.498+221.267+270.698+208.867C271.298+205.867+272.298+204.367+273.698+204.367C275.298+204.367+276.098+205.867+276.098+208.867Z" fill="#000000" opacity="1"/>
</g>
</g>
</svg>
